<svg width="82" height="20" viewBox="0 0 82 18" fill="none" xmlns="http://www.w3.org/2000/svg">
<path id="Vector" fill-rule="evenodd" clip-rule="evenodd" d="M10.6238 0.262287C8.81569 0.0728235 6.99292 0.445093 5.40608 1.32793C3.81925 2.21076 2.54624 3.56082 1.76205 5.19253C0.97785 6.82425 0.720958 8.65752 1.02668 10.4404C1.3324 12.2232 2.18573 13.8681 3.46938 15.1489C4.75302 16.4298 6.40397 17.2837 8.19529 17.5933C9.98661 17.903 11.8304 17.6531 13.4731 16.8781C15.1159 16.103 16.477 14.8409 17.3694 13.2652C18.2619 11.6894 18.6417 9.87742 18.4569 8.0782C18.2534 6.07826 17.3634 4.20912 15.9367 2.78553C14.51 1.36193 12.6337 0.470839 10.6238 0.262287ZM10.3387 13.6011C9.36619 13.7309 8.37727 13.5543 7.51091 13.0961C6.64454 12.6379 5.94428 11.9212 5.50854 11.0467C5.0728 10.1722 4.92349 9.18386 5.08159 8.22059C5.23969 7.25732 5.69726 6.36754 6.38998 5.6763C7.0827 4.98507 7.97575 4.52713 8.94362 4.36685C9.91149 4.20657 10.9055 4.352 11.786 4.78271C12.6665 5.21341 13.3892 5.90774 13.8525 6.76811C14.3158 7.62848 14.4964 8.61163 14.369 9.57939C14.2353 10.5973 13.768 11.543 13.0394 12.27C12.3108 12.9971 11.3616 13.4649 10.3387 13.6011ZM23.1639 0.608614C22.8587 0.609341 22.5574 0.677748 22.2821 0.808859C22.0068 0.939969 21.7644 1.13048 21.5724 1.36654C21.3804 1.6026 21.2438 1.87826 21.1724 2.17346C21.101 2.46867 21.0967 2.77599 21.1597 3.07307C21.3528 4.03552 22.2565 4.69312 23.241 4.69312H28.9542L20.0632 16.3972C19.9975 16.4836 19.9572 16.5865 19.9469 16.6944C19.9367 16.8023 19.9568 16.9109 20.0052 17.008C20.0535 17.1051 20.128 17.1869 20.2205 17.2443C20.3129 17.3016 20.4196 17.3322 20.5285 17.3327H34.4749C35.4587 17.3327 36.3631 16.6752 36.5562 15.7126C36.6192 15.4156 36.6149 15.1083 36.5436 14.8131C36.4723 14.518 36.3357 14.2423 36.1438 14.0062C35.9519 13.7702 35.7096 13.5796 35.4344 13.4484C35.1591 13.3172 34.858 13.2487 34.5528 13.2478H27.5918L36.4759 1.55287C36.5423 1.46563 36.583 1.3617 36.5933 1.25276C36.6036 1.14382 36.5832 1.03417 36.5344 0.93611C36.4856 0.838052 36.4103 0.755466 36.3169 0.697618C36.2235 0.639771 36.1158 0.60895 36.0058 0.608614H23.1639ZM78.8926 0.655728C78.4308 0.764942 78.0204 1.02763 77.7291 1.40036C77.4379 1.7731 77.2832 2.23355 77.2907 2.70559V9.50616L66.2129 0.737061C66.126 0.668465 66.0215 0.625657 65.9112 0.613563C65.801 0.601468 65.6895 0.620577 65.5897 0.668692C65.4899 0.716808 65.4058 0.791974 65.347 0.885544C65.2882 0.979114 65.2572 1.08729 65.2575 1.19762V15.2393C65.25 15.7114 65.4046 16.1718 65.6959 16.5446C65.9872 16.9173 66.3976 17.18 66.8594 17.2892C67.1592 17.3548 67.47 17.3526 67.7689 17.2828C68.0677 17.213 68.3471 17.0774 68.5862 16.8859C68.8253 16.6944 69.0182 16.4519 69.1506 16.1764C69.2829 15.9008 69.3514 15.5993 69.351 15.2939V8.43445L80.4289 17.2037C80.5158 17.2723 80.6203 17.3151 80.7305 17.3271C80.8407 17.3392 80.9521 17.3201 81.0519 17.272C81.1517 17.2239 81.2358 17.1488 81.2945 17.0553C81.3533 16.9617 81.3843 16.8536 81.384 16.7433V2.65037C81.3843 2.34506 81.3158 2.04358 81.1834 1.76814C81.051 1.4927 80.8581 1.25033 80.619 1.0589C80.3799 0.867479 80.1007 0.731878 79.8019 0.662099C79.5031 0.592321 79.1923 0.590143 78.8926 0.655728ZM50.049 4.30216C54.7346 4.30216 58.2356 6.7653 58.2356 8.96857C58.2356 11.1718 54.7346 13.635 50.049 13.635C45.3634 13.635 41.8623 11.1718 41.8623 8.96857C41.8623 6.7653 45.3634 4.30216 50.049 4.30216ZM50.049 0.217818C43.2668 0.217818 37.7688 4.13569 37.7688 8.96857C37.7688 13.8014 43.2668 17.7193 50.049 17.7193C56.8312 17.7193 62.329 13.8014 62.329 8.96857C62.329 4.13569 56.831 0.217818 50.049 0.217818Z" fill="#0069FF"/>
</svg>
