<svg width="31" height="20" viewBox="0 0 31 31" fill="none" xmlns="http://www.w3.org/2000/svg">
<g id="Group 196">
<rect id="Rectangle 59" x="0.665039" y="0.492188" width="29.8448" height="29.8448" rx="4.89765" fill="url(#paint0_linear_424_31873)"/>
<g id="Group 195">
<path id="Vector" d="M28.9497 18.0027C28.9497 18.9775 28.6021 19.7875 27.8924 20.4328C27.1827 21.078 26.3478 21.4075 25.3184 21.4075H20.1562V9.50439H24.9426C25.9306 9.50439 26.7651 9.83391 27.4469 10.4517C28.1429 11.0832 28.4768 11.8658 28.4768 12.7994C28.4768 13.8428 28.0591 14.6391 27.2524 15.2294C28.3097 15.7786 28.9497 16.7671 28.9497 18.0027ZM22.1458 11.3441V14.4743H24.9563C25.8331 14.4743 26.5009 13.7879 26.5009 12.9092C26.5009 12.0305 25.8331 11.3441 24.9563 11.3441H22.1458ZM25.332 19.5678C26.2503 19.5678 26.9741 18.8402 26.9741 17.9066C26.9741 16.973 26.2503 16.2454 25.332 16.2454H22.1458V19.5816H25.332V19.5678Z" fill="white"/>
<path id="Vector_2" d="M5.45753 21.3333L2.22656 9.42243H4.34598L6.82845 18.5706L9.48899 9.42163L11.4646 9.42243L14.1345 18.6192L16.6281 9.42467L18.7475 9.42163L15.5152 21.3311L13.0585 21.3286L10.4776 12.4338L7.89432 21.3309L5.45753 21.3333Z" fill="white"/>
</g>
</g>
<defs>
<linearGradient id="paint0_linear_424_31873" x1="0.665039" y1="30.337" x2="30.5101" y2="0.492187" gradientUnits="userSpaceOnUse">
<stop stop-color="#B52181"/>
<stop offset="1" stop-color="#50327C"/>
</linearGradient>
</defs>
</svg>
