<svg width="70" height="20" viewBox="0 0 71 29" fill="none" xmlns="http://www.w3.org/2000/svg">
<g id="LOGO">
<g id="&#60;&#208;&#147;&#209;&#128;&#209;&#131;&#208;&#191;&#208;&#191;&#208;&#176;&#62;">
<path id="&#60;&#208;&#161;&#208;&#190;&#209;&#129;&#209;&#130;&#208;&#176;&#208;&#178;&#208;&#189;&#208;&#190;&#208;&#185; &#208;&#186;&#208;&#190;&#208;&#189;&#209;&#130;&#209;&#131;&#209;&#128;&#62;" d="M8.02506 16.5467L4.27286 25.5416L1.38162 25.6101L5.50902 15.9886C3.43782 14.9976 2.0288 13.1458 1.94641 9.66992C1.83091 4.79713 4.85924 2.28757 8.53008 2.20056L12.2658 2.11201L12.8164 25.339L10.3151 25.3983L10.1041 16.4974L8.02506 16.5467ZM9.81458 4.28286L8.48262 4.31443C6.46858 4.36217 4.55101 5.74024 4.64264 9.60601C4.73119 13.3418 6.54641 14.5014 8.72287 14.4498L10.0548 14.4182L9.81458 4.28286Z" fill="#FF0000"/>
<path id="&#60;&#208;&#161;&#208;&#190;&#209;&#129;&#209;&#130;&#208;&#176;&#208;&#178;&#208;&#189;&#208;&#190;&#208;&#185; &#208;&#186;&#208;&#190;&#208;&#189;&#209;&#130;&#209;&#131;&#209;&#128;&#62;_2" d="M24.4798 8.68077L24.8678 25.0535L22.3665 25.1128L22.1924 17.7711L18.4242 17.8604L18.5982 25.2021L16.0644 25.2621L15.6763 8.88945L18.2101 8.82939L18.3749 15.7812L22.1431 15.6919L21.9784 8.74007L24.4798 8.68077ZM37.9707 27.9608L35.6967 28.0147L35.6204 24.7986L28.6036 24.9649L28.6798 28.181L26.4059 28.2349L26.2803 22.9397L27.2875 22.9159C28.6993 19.4045 28.7416 14.3329 28.6385 9.97985L28.6053 8.58298L36.207 8.40279L36.5458 22.6964L37.8451 22.6656L37.9707 27.9608ZM33.7541 10.5087L30.9278 10.5757L30.9348 10.868C31.0164 14.3115 30.9733 19.3506 29.6913 22.8589L34.0444 22.7557L33.7541 10.5087ZM44.8842 24.8064C41.5057 24.8865 39.3628 22.2396 39.2434 17.2045C39.1187 11.9417 40.4897 8.07381 43.9656 7.99142C46.6944 7.92674 48.5296 9.93094 48.6613 15.486L48.6944 16.8829L41.8724 17.0446C41.9601 20.7478 43.0459 22.6724 45.0599 22.6247C46.4893 22.5908 47.6109 21.9142 48.2498 21.4439L48.8809 23.3791C47.7478 24.2921 46.3393 24.7952 44.8842 24.8064ZM41.8556 14.9647L46.0462 14.8653C45.98 12.0716 45.4766 10.0358 44.0149 10.0705C42.4555 10.1074 41.9488 12.0372 41.8556 14.9647ZM53.8139 16.209L54.0072 24.3627L51.4733 24.4228L51.0852 8.05013L53.6191 7.99006L53.7985 15.5592L57.5497 7.89689L60.1161 7.83606L56.238 15.6314L61.0889 24.1949L58.3276 24.2603L53.8139 16.209ZM61.2196 16.001C61.098 10.8682 63.0019 7.54019 66.8352 7.44932C68.2969 7.41468 69.1508 7.78451 69.8763 8.22232L69.5759 10.6347C68.8799 10.0661 67.8923 9.53701 66.8527 9.56165C65.0335 9.60477 63.7827 11.6821 63.8805 15.8078C63.9775 19.9009 65.0074 22.2167 67.054 22.1682C68.067 22.1578 69.0409 21.7762 69.7914 21.0957L70.4207 22.9661C69.5002 23.8161 68.292 24.2859 67.039 24.2813C63.5306 24.3645 61.3521 21.5885 61.2196 16.001Z" fill="white"/>
</g>
</g>
</svg>
