<?xml version="1.0" standalone="no"?>
<!DOCTYPE svg PUBLIC "-//W3C//DTD SVG 20010904//EN"
 "http://www.w3.org/TR/2001/REC-SVG-20010904/DTD/svg10.dtd">
<svg version="1.0" xmlns="http://www.w3.org/2000/svg"
 width="512.000000pt" height="512.000000pt" viewBox="0 0 512.000000 512.000000"
 preserveAspectRatio="xMidYMid meet">
<metadata>
Created by potrace 1.14, written by Peter Selinger 2001-2017
</metadata>
<g transform="translate(0.000000,512.000000) scale(0.100000,-0.100000)"
fill="#000000" stroke="none">
<path d="M1895 4505 c-31 -31 -32 -63 -4 -117 29 -56 22 -117 -21 -199 -112
-213 -129 -276 -105 -390 17 -80 115 -218 166 -234 31 -10 85 13 98 41 19 43
12 67 -35 124 -49 59 -60 79 -67 127 -5 33 25 133 52 173 36 52 83 162 95 222
19 94 -8 202 -64 258 -29 29 -83 26 -115 -5z"/>
<path d="M2302 3990 c-34 -32 -38 -66 -13 -117 36 -74 29 -112 -43 -253 -91
-179 -104 -235 -81 -335 20 -87 97 -204 154 -234 53 -29 110 3 117 65 5 35 1
44 -37 89 -90 108 -92 159 -10 317 75 143 93 198 93 275 0 72 -40 173 -78 198
-32 21 -76 19 -102 -5z"/>
<path d="M2804 3463 c-49 -9 -74 -74 -48 -125 16 -30 51 -43 149 -52 33 -3 69
-8 80 -10 11 -2 43 -7 70 -11 485 -68 872 -245 823 -375 -30 -80 -192 -168
-443 -240 -60 -18 -121 -34 -135 -36 -14 -3 -55 -11 -91 -19 -66 -14 -220 -39
-314 -50 -27 -3 -63 -7 -80 -10 -144 -20 -822 -29 -1010 -12 -137 12 -364 40
-415 51 -8 1 -37 7 -65 11 -27 5 -52 10 -55 10 -3 1 -32 7 -65 14 -33 7 -107
26 -164 43 -268 77 -426 169 -438 255 -5 36 -2 43 42 87 87 87 320 181 585
236 58 12 116 23 130 25 14 2 39 6 55 9 33 5 96 15 145 21 69 9 104 68 74 126
-14 28 -55 48 -89 44 -126 -17 -212 -31 -330 -56 -151 -31 -344 -85 -359 -100
-6 -5 -17 -9 -26 -9 -29 0 -217 -99 -271 -143 -61 -50 -104 -107 -120 -158
-10 -33 -13 -199 -5 -249 3 -14 7 -47 11 -75 11 -92 46 -237 81 -337 96 -275
228 -485 438 -693 227 -226 477 -374 776 -460 133 -38 147 -41 295 -59 105
-13 364 -14 422 -2 16 3 44 8 63 11 228 37 455 119 645 233 101 60 243 170
334 257 l86 83 93 5 c51 4 96 8 100 10 4 3 34 8 67 12 32 3 63 9 67 11 5 3 21
8 36 10 46 9 170 53 225 80 241 122 404 309 480 549 75 240 41 507 -85 649
-122 139 -326 144 -491 13 -32 -24 -41 -27 -48 -16 -5 8 -9 18 -9 22 0 19 -98
110 -158 148 -83 53 -166 90 -289 129 -95 31 -301 83 -373 94 -19 3 -46 8 -60
10 -135 24 -308 44 -336 39z m1640 -554 c62 -73 91 -233 69 -377 -47 -300
-256 -523 -573 -610 -73 -21 -95 -25 -174 -39 l-38 -6 18 29 c10 16 29 45 42
64 46 69 130 248 166 354 49 146 76 270 91 420 2 27 120 152 172 183 25 15 62
29 82 33 48 8 115 -15 145 -51z"/>
<path d="M770 1506 c-166 -68 -285 -163 -325 -260 -18 -43 -19 -114 -3 -169
24 -79 159 -194 301 -257 146 -65 416 -138 602 -165 22 -3 65 -10 95 -15 30
-5 105 -14 165 -20 61 -6 128 -13 150 -15 62 -7 358 -19 480 -19 115 0 425 12
485 18 19 2 71 7 115 11 44 4 82 8 85 10 3 1 38 6 79 9 41 4 77 8 80 10 3 2
29 7 56 10 190 25 476 107 630 180 195 93 287 198 287 328 0 129 -106 239
-325 337 l-69 31 -61 -58 c-242 -228 -548 -396 -867 -477 -52 -13 -108 -26
-125 -29 -16 -3 -61 -10 -100 -17 -89 -14 -369 -20 -455 -9 -183 25 -206 29
-310 56 -226 61 -439 159 -629 291 -63 44 -155 115 -176 137 -6 6 -33 32 -60
58 l-50 47 -55 -23z"/>
</g>
</svg>
